<svg xmlns="http://www.w3.org/2000/svg"><symbol id="icon1" viewBox="0 0 26 26"><g filter="url(#a)"><rect width="16" height="16" x="5" y="1" fill="#0E2B5A" stroke="#0E2B5A" stroke-width="2" rx="4"/><path fill="#fff" d="M11.95 12.9c-.225 0-.45-.075-.6-.3L7.9 9.15c-.375-.375-.375-.9 0-1.275.375-.375.9-.375 1.275 0l2.775 2.775L16.9 5.7c.375-.375.9-.375 1.275 0 .375.375.375.9 0 1.275l-5.55 5.55c-.225.3-.45.375-.675.375z"/></g><defs><filter id="a" width="26" height="26" x="0" y="0" color-interpolation-filters="sRGB" filterUnits="userSpaceOnUse"><feFlood flood-opacity="0" result="BackgroundImageFix"/><feColorMatrix in="SourceAlpha" result="hardAlpha" values="0 0 0 0 0 0 0 0 0 0 0 0 0 0 0 0 0 0 127 0"/><feOffset dy="4"/><feGaussianBlur stdDeviation="2"/><feComposite in2="hardAlpha" operator="out"/><feColorMatrix values="0 0 0 0 0 0 0 0 0 0 0 0 0 0 0 0 0 0 0.25 0"/><feBlend in2="BackgroundImageFix" result="effect1_dropShadow_367_3427"/><feBlend in="SourceGraphic" in2="effect1_dropShadow_367_3427" result="shape"/></filter></defs></symbol><symbol id="icon2" viewBox="0 0 24 30"><path fill="#0E2B5A" fill-rule="evenodd" d="M7 21.459c0 .5.6.7 1 .4l10.5-8.8c.6-.5.6-1.4 0-1.9L8 2.059c-.4-.3-1 0-1 .4v19z" clip-rule="evenodd" filter="url(#a)"/><defs><filter id="a" width="32" height="32" x="-4" y="0" color-interpolation-filters="sRGB" filterUnits="userSpaceOnUse"><feFlood flood-opacity="0" result="BackgroundImageFix"/><feColorMatrix in="SourceAlpha" result="hardAlpha" values="0 0 0 0 0 0 0 0 0 0 0 0 0 0 0 0 0 0 127 0"/><feOffset dy="4"/><feGaussianBlur stdDeviation="2"/><feComposite in2="hardAlpha" operator="out"/><feColorMatrix values="0 0 0 0 0 0 0 0 0 0 0 0 0 0 0 0 0 0 0.25 0"/><feBlend in2="BackgroundImageFix" result="effect1_dropShadow_367_2829"/><feBlend in="SourceGraphic" in2="effect1_dropShadow_367_2829" result="shape"/></filter></defs></symbol><symbol id="icon3" viewBox="0 0 24 28"><path fill="#666" fill-rule="evenodd" d="M13.815 12l5.651-5.651a1.202 1.202 0 0 0-.389-1.958 1.2 1.2 0 0 0-1.308.26l-5.65 5.652-5.653-5.652A1.201 1.201 0 0 0 4.77 6.349L10.421 12 4.77 17.651a1.202 1.202 0 0 0 .85 2.049c.306 0 .613-.117.847-.351l5.652-5.652 5.651 5.652a1.195 1.195 0 0 0 1.697 0 1.202 1.202 0 0 0 0-1.698L13.816 12z" clip-rule="evenodd" filter="url(#a)"/><defs><filter id="a" width="32" height="32" x="-4" y="0" color-interpolation-filters="sRGB" filterUnits="userSpaceOnUse"><feFlood flood-opacity="0" result="BackgroundImageFix"/><feColorMatrix in="SourceAlpha" result="hardAlpha" values="0 0 0 0 0 0 0 0 0 0 0 0 0 0 0 0 0 0 127 0"/><feOffset dy="4"/><feGaussianBlur stdDeviation="2"/><feComposite in2="hardAlpha" operator="out"/><feColorMatrix values="0 0 0 0 0 0 0 0 0 0 0 0 0 0 0 0 0 0 0.25 0"/><feBlend in2="BackgroundImageFix" result="effect1_dropShadow_367_3425"/><feBlend in="SourceGraphic" in2="effect1_dropShadow_367_3425" result="shape"/></filter></defs></symbol><symbol id="icon4" viewBox="0 0 20 26"><path fill="#0E2B5A" d="M5.958 17.583a1.012 1.012 0 0 1-.312-.74c0-.284.104-.53.313-.739L12.063 10 5.938 3.875a.99.99 0 0 1-.292-.73c0-.29.104-.54.313-.75.208-.207.455-.312.74-.312.284 0 .53.105.739.313l7 7.02a.736.736 0 0 1 .177.272.93.93 0 0 1 .052.312.93.93 0 0 1-.052.313.736.736 0 0 1-.177.27l-7.021 7.021a.976.976 0 0 1-.718.292c-.285 0-.532-.104-.74-.313z" filter="url(#a)"/><defs><filter id="a" width="28" height="28" x="-4" y="0" color-interpolation-filters="sRGB" filterUnits="userSpaceOnUse"><feFlood flood-opacity="0" result="BackgroundImageFix"/><feColorMatrix in="SourceAlpha" result="hardAlpha" values="0 0 0 0 0 0 0 0 0 0 0 0 0 0 0 0 0 0 127 0"/><feOffset dy="4"/><feGaussianBlur stdDeviation="2"/><feComposite in2="hardAlpha" operator="out"/><feColorMatrix values="0 0 0 0 0 0 0 0 0 0 0 0 0 0 0 0 0 0 0.25 0"/><feBlend in2="BackgroundImageFix" result="effect1_dropShadow_367_3431"/><feBlend in="SourceGraphic" in2="effect1_dropShadow_367_3431" result="shape"/></filter></defs></symbol></svg>